<?xml version="1.0" standalone="no"?>
<!DOCTYPE svg PUBLIC "-//W3C//DTD SVG 20010904//EN"
 "http://www.w3.org/TR/2001/REC-SVG-20010904/DTD/svg10.dtd">
<svg version="1.0" xmlns="http://www.w3.org/2000/svg"
 width="260.000000pt" height="260.000000pt" viewBox="0 0 260.000000 260.000000"
 preserveAspectRatio="xMidYMid meet">
<metadata>
Created by potrace 1.11, written by Peter Selinger 2001-2013
</metadata>
<g transform="translate(0.000000,260.000000) scale(0.100000,-0.100000)"
fill="#000000" stroke="none">
<path d="M1179 2526 c-2 -2 -29 -7 -59 -10 -72 -9 -159 -31 -245 -63 -392
-146 -673 -466 -776 -885 -30 -122 -33 -378 -6 -504 98 -460 426 -817 867
-945 508 -146 1050 47 1349 481 89 130 146 252 181 390 29 118 32 136 35 285
5 196 -21 333 -96 508 -164 385 -504 653 -929 732 -41 8 -314 17 -321 11z
m230 -280 c64 -30 154 -72 201 -94 109 -51 189 -88 323 -151 60 -28 112 -51
117 -51 12 0 30 -26 35 -50 2 -12 6 -29 9 -38 3 -9 8 -32 11 -51 3 -19 8 -37
10 -41 2 -3 6 -17 9 -31 2 -13 22 -98 44 -189 111 -451 113 -462 100 -478 -14
-18 -16 -20 -88 -112 -28 -36 -60 -76 -71 -90 -11 -14 -30 -38 -42 -54 -52
-69 -282 -363 -302 -388 l-23 -27 -436 -5 c-357 -4 -437 -3 -443 8 -9 15 3 1
-308 379 l-229 280 27 131 c24 112 71 328 82 376 1 8 15 71 30 140 14 69 31
143 36 165 l10 41 382 191 c210 106 386 192 391 192 6 1 62 -23 125 -53z"/>
<path d="M1155 1985 c-258 -56 -450 -235 -530 -495 -27 -86 -29 -262 -4 -352
73 -267 273 -457 538 -514 280 -59 583 75 729 322 78 132 103 231 98 384 -6
185 -71 334 -202 464 -131 132 -279 196 -464 201 -62 2 -130 -2 -165 -10z"/>
</g>
</svg>
